PathFileType	3	(X/Y/Z)	results
DataRate	CameraRate	NumFrames	NumMarkers	Units	OrigDataRate	OrigDataStartFrame	OrigNumFrames
30.0	30.0	4	85	mm	30.0	125	199
Frame#	Time	head			nose			neck			shoulder_r			elbow_r			wrist_r			shoulder_l			elbow_l			wrist_l			hip_r			knee_r			ankle_r			hip_l			knee_l			ankle_l			heel_r			heel_l			mtoe_r			ltoe_r			mtoe_l			ltoe_l			asis_l			asis_r			psi_r			psi_l			mhnd_r			lhnd_r			mhnd_l			lhnd_l			l_lat_knee			r_med_wrist			l_lat_ankle			r_med_ankle			r_lat_knee			xiphoid			l_med_ankle			r_med_knee			l_med_elbow			navel			r_lat_elbow			r_lat_wrist			l_med_wrist			l_lat_elbow			l_med_knee			r_med_elbow			r_lat_ankle			l_lat_wrist			chin			T10			r_eye			l_eye			l_ear			r_ear			spinal_cord_8			spinal_cord_12			spinal_cord_27			spinal_cord_33			up_arm_r_0			up_arm_r_5			up_arm_l_0			up_arm_l_5			front_torso_11			front_torso_7			front_torso_4			front_torso_1			front_torso_10			thigh_r_2			thigh_r_3			thigh_l_1			thigh_l_5			shank_l_0			shank_l_4			shank_r_1			shank_r_2			foot_r_1			foot_r_3			foot_r_5			foot_r_6			foot_r_7			foot_l_1			foot_l_7			foot_l_0			foot_l_4			foot_l_5			foot_l_6			
		X1	Y1	Z1	X2	Y2	Z2	X3	Y3	Z3	X4	Y4	Z4	X5	Y5	Z5	X6	Y6	Z6	X7	Y7	Z7	X8	Y8	Z8	X9	Y9	Z9	X10	Y10	Z10	X11	Y11	Z11	X12	Y12	Z12	X13	Y13	Z13	X14	Y14	Z14	X15	Y15	Z15	X16	Y16	Z16	X17	Y17	Z17	X18	Y18	Z18	X19	Y19	Z19	X20	Y20	Z20	X21	Y21	Z21	X22	Y22	Z22	X23	Y23	Z23	X24	Y24	Z24	X25	Y25	Z25	X26	Y26	Z26	X27	Y27	Z27	X28	Y28	Z28	X29	Y29	Z29	X30	Y30	Z30	X31	Y31	Z31	X32	Y32	Z32	X33	Y33	Z33	X34	Y34	Z34	X35	Y35	Z35	X36	Y36	Z36	X37	Y37	Z37	X38	Y38	Z38	X39	Y39	Z39	X40	Y40	Z40	X41	Y41	Z41	X42	Y42	Z42	X43	Y43	Z43	X44	Y44	Z44	X45	Y45	Z45	X46	Y46	Z46	X47	Y47	Z47	X48	Y48	Z48	X49	Y49	Z49	X50	Y50	Z50	X51	Y51	Z51	X52	Y52	Z52	X53	Y53	Z53	X54	Y54	Z54	X55	Y55	Z55	X56	Y56	Z56	X57	Y57	Z57	X58	Y58	Z58	X59	Y59	Z59	X60	Y60	Z60	X61	Y61	Z61	X62	Y62	Z62	X63	Y63	Z63	X64	Y64	Z64	X65	Y65	Z65	X66	Y66	Z66	X67	Y67	Z67	X68	Y68	Z68	X69	Y69	Z69	X70	Y70	Z70	X71	Y71	Z71	X72	Y72	Z72	X73	Y73	Z73	X74	Y74	Z74	X75	Y75	Z75	X76	Y76	Z76	X77	Y77	Z77	X78	Y78	Z78	X79	Y79	Z79	X80	Y80	Z80	X81	Y81	Z81	X82	Y82	Z82	X83	Y83	Z83	X84	Y84	Z84	X85	Y85	Z85	
125	4.166666666666667	-1849.3405997999848	1505.7597735052984	-623.3914663998308	-1795.968219115006	1286.4701313745913	-652.0747223672327	-2013.2175934832785	1225.8992738724637	-658.2236998825523	-1989.3856856162013	1189.4252128197138	-469.6990381098679	-2202.102362734213	1023.005421093294	-418.64173862606725	-2248.615744836658	797.2451540603914	-382.4110156956167	-2033.3985301565328	1173.747230149901	-808.9987566594239	-2100.849796437664	917.5086376910095	-854.3599268474233	-1893.7375433421473	860.795850459008	-765.4847514192189	-2266.8354177631286	779.1950695705721	-560.3004741819345	-2080.387509998597	455.38720732382507	-529.2360545375178	-2420.21591672758	298.5117009343301	-463.6796832124012	-2295.5473267083466	782.8866770441168	-755.9078091141984	-2297.449153351025	409.8804988416815	-765.2940253097818	-2572.028653449863	150.9010802638474	-702.1082506438117	-2471.976474754697	295.44402271530333	-466.4647829347499	-2634.234742603899	112.35489539469482	-694.6214129971902	-2467.0492017547413	100.03397383162094	-394.7047988863652	-2474.3965799693556	173.19221390859468	-357.30867524100614	-2445.460359972631	20.571800639365076	-668.0106962110477	-2505.582591484315	4.695651350449248	-735.1606576924643	-2221.0937619731503	792.0673493874338	-811.0747854841088	-2183.997875022548	787.3624870272947	-523.9255107735202	-2295.4998827885615	916.1311729449657	-603.5592608812364	-2305.320107292186	912.8903922815159	-701.8841524777428	-2291.5942424095538	739.575459603377	-367.96307943904264	-2245.89710774568	711.6336493836242	-367.69967879076586	-1838.7157254808167	814.5752040594417	-739.9726326049965	-1812.0722244200458	860.1880690879724	-731.8894575591876	-2307.014728746988	411.0902930182038	-810.2513290526706	-2271.6498907724485	812.8248732062316	-373.00424840725697	-2594.5591240304534	141.12296341266068	-750.4711788795923	-2423.7157457239923	272.48872458844374	-490.4397840730172	-2082.030305153996	459.45301502304346	-489.34535821212177	-2010.4872568052658	1030.6995154058304	-661.5610548517224	-2565.7300866562346	134.87570090331442	-672.1078819918918	-2085.769427261225	454.1346261458979	-568.4158613567367	-2124.274705134576	928.3541191507339	-827.9013454242204	-2102.4525760677307	830.1866802505092	-665.9317860474732	-2183.857609500636	1022.625237083115	-380.78533970952753	-2221.9702390938055	796.4676108900675	-400.7797629524468	-1904.649393106656	835.3571814761897	-782.1946204869013	-2079.881873171295	929.6036904825469	-887.341143833208	-2276.146054197027	413.3361033932467	-724.9344272055667	-2209.5847718613118	1031.6743258366248	-455.64996788213097	-2433.3056254196295	303.5204745014385	-416.1588128928618	-1893.2529726183557	891.9015960161805	-766.3463791923831	-1844.32212310251	1218.2465657450964	-651.3719495011021	-2177.662337033072	1134.1874106569492	-652.3995500242465	-1779.7079407379301	1314.9942426597622	-615.962342508772	-1789.4255235667815	1321.1386739658296	-688.9175521686902	-1899.3734777793693	1359.1211672711606	-727.8248210645166	-1879.0108505403866	1341.7434571523406	-546.5674850330108	-2027.9995757872675	1301.5774882070623	-655.9088226765246	-2129.751958145655	1222.6867463310832	-654.7269623719272	-2235.7487400251066	992.285011588646	-640.3761684863155	-2170.794244615444	1119.4510802267046	-653.1591937442663	-2064.293842954491	1069.1864465100007	-442.84210583357566	-2137.587596258781	1122.3601604000944	-422.32349045166006	-2035.4259287591838	1123.9026547719302	-845.7200169453423	-2119.3686067003214	995.2149089442192	-821.8152165645741	-2121.9527536064375	872.2358965988522	-610.7920573595358	-2025.083735452728	939.200024585446	-662.075404106888	-1986.4025073551913	1069.837525740093	-732.9246125981729	-2107.0450710146856	903.4054146292823	-740.5859811671612	-1953.6023979451184	1098.1547649192337	-573.9128109507204	-2170.0622182116817	605.2796946985371	-560.3617469688947	-2150.589517843722	586.3413769305847	-468.23805746280436	-2292.4804961056443	519.5740599908669	-717.5244174020568	-2294.532758452832	684.3477191585679	-854.0425356160414	-2511.2111171046786	203.26798408087186	-783.5429285152592	-2391.832750028209	308.70638496660865	-694.4186777781828	-2225.00701688276	408.2402605767951	-447.5409479326091	-2256.6880358411127	356.3286452533217	-530.6644942727974	-2474.7138236178544	122.90762759585269	-380.41826438763	-2473.962744224807	145.38079903619675	-365.0841035522719	-2461.6086885363343	167.7443039916483	-432.59255039499203	-2456.138799947312	191.7404495421461	-405.24644381193497	-2469.2153612082184	211.65617785273193	-382.1200251712895	-2477.2323273631514	3.8120658839645163	-707.3274099238045	-2554.1144462543484	63.77675244341285	-742.4492419859932	-2485.3383541524404	1.612651726949077	-720.6233741346629	-2467.824229528942	6.7610061060580655	-691.0331703856823	-2510.625123664037	40.49482631015544	-707.410586704779	-2527.2332589505263	73.1875964719326	-688.1971426226291	
126	4.2	-1742.121711017088	1513.5809160711071	-587.2995541710037	-1689.6773908802263	1295.5779239642457	-625.8167718343464	-1916.4158004021294	1244.474958985668	-630.9202628479801	-1914.2929427085685	1209.3845276906707	-424.8344869900858	-2145.7483962130896	1086.5433570189873	-341.8332854084318	-2212.9355789870974	863.5290748720083	-327.89159975718144	-1917.3346531134277	1198.7981589562464	-784.4204576846483	-1897.6715379811244	937.6751563408175	-845.1959853044311	-1687.277765277784	978.8870428092205	-755.492790006335	-2142.514920252763	785.8197567501745	-541.650491584345	-1891.5197293347599	507.63034154434337	-541.6003568312299	-2177.9019951026953	279.1438808462469	-440.75372338461193	-2182.4913857514384	789.2377999044562	-735.2749485817728	-2267.197155749084	428.49668156499104	-753.5292084554617	-2548.704363579895	172.89946454355842	-710.1651930535318	-2230.075384135444	260.6283338695049	-436.4185334232635	-2612.416278254651	142.59854572610962	-705.9386696636985	-2139.884025068822	83.94712764862194	-373.10873439804857	-2168.1109567581693	150.00006569570195	-332.55220811384567	-2447.9956527181043	14.263280608955139	-670.3865685438656	-2508.1745309058733	9.121114446717371	-739.1463890233123	-2111.8020847999296	802.0959664484841	-794.509259689143	-2058.188831581652	797.561598041698	-509.9780573443015	-2179.7651793647583	921.5346720579893	-582.127034770918	-2195.029546136053	918.3720066249555	-679.7575649881868	-2259.630478846268	808.804156193874	-313.5229750047419	-2218.342542160385	776.8237510322729	-325.42264830567035	-1617.6550272759648	961.8927352609311	-729.445051815959	-1613.9046231641933	1014.6478630681903	-721.7914067532724	-2278.344598201291	431.2464941149005	-798.2960346220461	-2231.951461993018	879.665226310546	-312.40587701881236	-2570.0547253299615	165.88305583093748	-759.5325766503594	-2178.8518398416654	253.06121345045523	-467.6672767632611	-1889.0358784319087	510.91391649660875	-501.67932788974076	-1904.274672462568	1049.6636929053186	-635.6849246957994	-2543.586045933835	155.35770365753564	-680.7952033353596	-1901.1275687509842	505.1313534837464	-579.8762827674961	-1922.4153175181243	938.6119063241276	-817.7501255042127	-1986.386889042919	845.0652172175654	-644.5825611666315	-2121.327400482211	1078.301654272291	-308.63973478920195	-2190.07788281919	862.9645207911991	-350.8089606446159	-1685.7584710019496	951.1018433632466	-771.9575555925973	-1883.0730186855026	957.8804198006285	-877.6357039359608	-2242.57290669794	423.3237206909459	-715.2628591934125	-2157.8484133330376	1100.5042988817868	-375.8836462943917	-2185.844541671189	281.0040257168083	-391.8853571618335	-1700.5564488214977	1007.0088787404088	-756.6690234349742	-1738.6830992337525	1228.0213074356486	-631.0696700546943	-2076.4018186201365	1145.0189754301311	-631.1241425646072	-1674.7723765199323	1321.8534513114719	-587.4818952062004	-1681.1489635585622	1332.1525796516732	-660.3373353723541	-1788.8632988566505	1373.585622428735	-701.8815641373717	-1776.8181760269374	1345.9355535304142	-521.1573765801413	-1934.8562723110642	1319.3423695468261	-628.4958837871316	-2032.7165465562684	1235.7082386659868	-631.2147327328271	-2128.0088865921443	1000.4163508228345	-622.0867607804016	-2068.8180516396856	1130.6325698729015	-631.7760628948183	-2008.0695516433548	1105.2613850549094	-390.8608714165539	-2062.303738928507	1170.0483927471748	-352.36764781436614	-1904.0360957915489	1153.2531990702375	-824.2431647602472	-1939.7185766235937	1002.8443625882795	-807.4416452692682	-2009.6189495883116	885.6278769482971	-589.7763097192438	-1914.467202829988	957.5837726767825	-637.3817393195413	-1879.81984016344	1090.561704945958	-705.9268649564009	-1992.0823768154323	918.6750348179751	-718.77473794224	-1853.4959816949247	1118.9221123276513	-545.7232194183416	-2012.9485303530123	635.6131223974909	-557.8409556741706	-1979.0363184741502	620.8752562293397	-469.1991072389782	-2234.778388235296	530.1919745943138	-704.009084299059	-2209.070056457297	696.84089418245	-835.7625905683119	-2484.548820444132	227.67170921468028	-787.3451101378856	-2365.6004672333556	326.20686873350985	-690.1149986308308	-2011.1083882336077	429.38222946000315	-444.71118086102837	-2040.5544555246609	371.95117989305294	-524.9771785850363	-2153.173219347981	102.64781171201531	-356.9923680648476	-2158.4720886217274	124.19608220410794	-341.2336223474455	-2166.762318064426	147.47038418738083	-409.05484619324164	-2166.3659618130087	172.58560630246583	-382.17338887521623	-2182.015016575593	186.7750659979774	-356.55639751633885	-2481.448251866889	3.239908099895661	-710.3310233132551	-2542.9717553309924	76.77899299668888	-749.6633057390471	-2489.453471237565	2.3493883538875657	-723.8384729114769	-2472.0984104214526	4.689104844339237	-693.8025300619528	-2506.3656741542577	46.07645991532763	-712.5361470674682	-2516.269094646213	82.13568448574064	-694.7749985127418	
127	4.233333333333333	-1626.470140403504	1522.223824990874	-553.3485095280894	-1579.2563250993944	1303.9004240751544	-596.5345674138305	-1817.6091962794897	1259.9255044157048	-599.6148284393479	-1849.2368345507905	1229.4405233405657	-381.4819396283877	-2069.4165335811026	1126.6620951313473	-252.99740957618516	-2147.0400636276945	907.42876205224	-271.84393232096704	-1802.6744835034438	1211.722443612971	-756.1023776043709	-1735.7645665338118	970.2390350106768	-853.4386592777579	-1546.9307991873031	1043.0821589134518	-739.2182143691188	-2008.3732114237316	794.8061967993009	-519.4162397896977	-1735.034625005644	543.727517642502	-551.5656958456277	-1941.453578960862	245.67243269905072	-437.78832492495053	-2063.281234988307	788.1908890440054	-709.2624349368609	-2207.5813792150147	448.1583929730374	-725.8245178546601	-2502.3847322659885	205.35476850346623	-701.45104424251	-1987.1065847474647	209.77843243631455	-426.23657324972953	-2565.548291937955	188.1185746642206	-697.7473759294004	-1822.5879862479815	82.79555656601369	-413.2812454639372	-1862.8733128347967	128.0465162385306	-357.2988800977114	-2448.064417292275	14.30426960530945	-670.2853872235465	-2510.6162559948125	28.918991414698837	-735.4738029621583	-1998.8806041931261	805.5109200087452	-774.2515771747371	-1923.3333113857175	815.2486459820725	-494.87597020870845	-2061.1941915679995	925.1403997170213	-560.2501741538257	-2083.565286270348	917.3895029126605	-656.2407023147939	-2193.3187040923426	851.8611625563182	-259.5063029916552	-2157.606336136861	822.4115266386173	-286.4578887348646	-1477.3099131380327	1038.0292059164785	-708.5259239287644	-1486.0482481975218	1088.8610420935765	-694.5433184862793	-2217.305447531805	450.9090854304861	-771.1881771215935	-2161.3299818032674	920.1776213279534	-249.59417672286207	-2525.7722784925018	205.51531839531302	-750.3918595862747	-1942.5235123687062	223.17207940277112	-467.7572495472724	-1728.1109882918506	544.1670677352253	-511.95615653172456	-1796.842712660499	1065.8425139174499	-604.3142262043768	-2497.347442463006	184.1584427654328	-674.5838089325297	-1746.8048440696537	539.3302561358943	-588.9078022037642	-1761.5186174924982	962.7814664633787	-827.9922277585869	-1869.3872296125835	857.9882884526244	-619.0123320981277	-2039.151399635475	1110.5141162828515	-228.7201167755948	-2129.4916819092487	911.4169307530303	-298.75391624770265	-1538.0453311663157	1018.7175373192321	-758.5269621736293	-1723.3966132586227	997.429146032816	-881.3928427998054	-2184.051008545251	437.68158317803613	-687.7851319412679	-2087.203369541436	1146.9507081617896	-280.7957195299355	-1939.4132561447102	240.30462243990712	-388.57770515600754	-1566.0623856201094	1067.6172573787803	-738.4725859535433	-1630.0254386047277	1238.0089983499813	-605.1290980887861	-1972.8587493297825	1153.7415795052839	-610.0843377637098	-1564.7426023866142	1328.6485301663067	-557.0502837750439	-1568.64492829079	1341.1448896758102	-629.7363272784569	-1673.8253946013394	1386.9103545912785	-673.1827279800265	-1667.9756842874915	1353.9242996502687	-493.0479330875391	-1839.3620776943046	1333.9220133884915	-598.0699685165058	-1933.1859662331387	1246.2098531919585	-607.1445570052286	-2018.6681007115044	1007.0165711911807	-604.7779228994151	-1964.6384294146592	1139.6959546632665	-610.3166088943793	-1947.2531963259023	1134.454213782631	-335.00311012798204	-1978.7645106127602	1199.3030381879114	-276.50440292299703	-1779.969114685286	1175.8367514486317	-801.1992324992315	-1790.0359342780873	1020.8920846510945	-809.515359102256	-1897.6789334071611	897.1816387502406	-565.6059280984347	-1802.9475304713728	973.4240827120102	-606.9681548909019	-1769.8768233372073	1108.1823642086206	-672.759783208129	-1873.6471141053541	931.7485738561296	-693.151367728066	-1754.7359016125472	1136.6419220201717	-511.1328289779979	-1867.6158200026418	658.0162070554621	-552.3930344924822	-1824.4364803552378	644.2216443866596	-467.717921406609	-2158.5335492494437	541.8057999611574	-677.0504959353121	-2104.1576144631213	700.8579466653409	-809.4794938241706	-2437.678273168942	265.31339297712873	-774.1883084531902	-2309.7867876876476	344.6668540868371	-670.9488822249856	-1813.5235781734002	429.8827958384009	-448.1703847810069	-1846.364201098165	376.3132362601519	-529.7781202991979	-1837.506650469873	93.07347775745455	-391.88373797752627	-1846.5414704932834	109.28738653443395	-371.9783308557728	-1880.1799965743128	131.68896853771932	-431.7843349674734	-1882.719552727365	152.72799706460972	-401.7101905756691	-1895.5605992223047	157.2666421514036	-371.4286425078336	-2485.500699990349	14.69223214831067	-708.1605086216582	-2522.9195593198197	104.17178594151603	-744.6763318525227	-2494.1344512232	16.476834183823563	-721.1836147205604	-2475.245378623228	12.989913906404748	-692.2030247448812	-2495.771977491702	63.20749394781944	-709.3774337097311	-2492.811140205958	100.40178407884098	-691.4436099049826	
128	4.266666666666667	-1507.845207569699	1529.4857193195983	-522.5137790364805	-1467.0138477254848	1310.2599085548113	-567.5929459152206	-1715.6785524869772	1268.8468533821083	-570.7295651812314	-1766.499242742806	1243.9873634929113	-346.23619480125416	-1975.3120213442023	1129.6691641542068	-208.83403897503666	-2051.0849060089636	909.6891212668879	-226.47231696107136	-1680.6492815158515	1207.937308604786	-731.8148669204055	-1629.6146643242291	987.7616279723155	-877.3609519079429	-1461.6427422683385	1032.462477888091	-723.0953049123303	-1879.6037335656845	797.7302659300616	-500.6738760372903	-1610.1088748181658	549.3102524232991	-553.9367937348018	-1738.0475708218487	205.0166387073572	-456.5483654410317	-1947.4926653399075	788.3000495183842	-686.1527026491273	-2103.2327263584593	452.27089053175763	-685.899399015591	-2429.9148844592173	253.41934256180508	-671.9885151412672	-1773.2396816774801	157.74151830841953	-445.00657064487376	-2491.739657142474	249.9610125672003	-666.4549770068041	-1584.3980770546207	75.66219494943915	-476.0016279114643	-1626.2917303063834	95.41842503855075	-407.743329431537	-2427.6721032303785	48.60632277311999	-655.5155207952282	-2488.102114386695	84.18722967113368	-714.320835020275	-1888.7211019822269	808.4139181919816	-755.5237986165911	-1794.052676123192	822.0554305226697	-482.2021112004606	-1941.054595831556	925.4607629479182	-537.4595015940862	-1969.8082108953993	916.5359510349986	-631.6311593747276	-2095.577781688311	853.198374983937	-211.95104385434195	-2061.5179487650407	824.8195848964368	-242.01122198347042	-1398.3091188491978	1019.3618628060354	-682.6992304765083	-1408.4455133288393	1067.562581492812	-661.9702278777634	-2105.8799171556734	450.48702937221236	-732.1213063426748	-2063.893550847249	921.7877572555933	-202.99150728398868	-2454.940727377713	262.7522973248001	-719.1987856646206	-1736.485694421753	185.2242630287822	-488.35040163499275	-1598.6605588983473	548.1674332839784	-515.2294503832054	-1688.1408651331687	1075.5762504763327	-573.8421540778525	-2427.049767731437	228.6855755710841	-647.9772943655794	-1623.5092284953398	543.0144988912082	-590.3986039525198	-1658.5844140490804	978.1574572457542	-856.506195807363	-1752.6555112102615	865.391457752927	-592.3444147403768	-1943.159377302002	1113.5822686580213	-187.0730239767822	-2035.595035159806	914.4618760360917	-254.49522078007053	-1450.0232662042597	1011.2103773019463	-744.5137564397489	-1611.525479881333	1018.7011142481515	-897.0899756338163	-2086.7092633015704	446.68285362375684	-643.4933945361707	-1995.3510159033906	1150.412713484442	-234.6969322142809	-1731.1906617828326	196.44882932243019	-408.23442497878034	-1480.2168266792476	1057.373790906173	-721.3706339625613	-1519.6945128415862	1245.9933880981707	-576.9530046253747	-1866.385324643312	1157.4808317050736	-590.0204516108232	-1451.8983085005696	1334.1987500569114	-527.8364634497418	-1455.1897824087832	1347.4764427213513	-600.4141263058398	-1558.818438108892	1396.7562422411945	-643.7454208079346	-1554.5409266452225	1361.9487385256095	-463.90942929607564	-1739.9672666791416	1342.0663729116945	-570.5950105984251	-1830.0918785413867	1251.2360590887838	-584.95125281708	-1907.4523675265582	1009.2920361524114	-587.1115619641508	-1857.696500665167	1143.720865346273	-589.7468638382682	-1858.6895172409215	1144.32102540493	-297.6824914318146	-1888.4127452248874	1205.9314607095994	-234.90418563061476	-1657.1735169178098	1180.4281401204107	-782.1057917729671	-1682.6116765105455	1033.8267290193887	-827.264123087521	-1785.316527620345	903.603486190492	-540.7509840628462	-1690.9608379260574	983.0045326805789	-576.6711790410492	-1658.6756556346832	1118.8071013123558	-640.6815986329394	-1755.0729843345155	938.9705764041288	-666.7459741665166	-1653.9464546680817	1147.751355864703	-478.50166441838684	-1741.4366738177034	661.3634750057709	-544.5552554170171	-1691.4830107141668	648.001651590932	-463.61877831748035	-2058.2424698062805	550.5670476022	-641.0558610825119	-1976.3560959874274	690.4972009567374	-780.7195324574169	-2359.8905643996804	311.597370228274	-741.1592011256125	-2217.541467851296	358.85669473317955	-637.1646150365771	-1654.1116428423916	413.2513655667374	-457.171807734014	-1680.655388120904	360.2024275834084	-541.3695897079565	-1598.3928983416156	76.72491117150801	-451.7308400340499	-1608.202062002821	85.1669639008828	-427.7880729143428	-1653.2554165976671	111.80365386871705	-477.49543080300225	-1656.5665336267393	124.03514188757786	-442.95601227035814	-1666.1573693178525	118.1531149449308	-411.7169092504928	-2466.1638006243084	61.8364422512456	-689.8594251806531	-2478.8309438604347	160.23171556480423	-719.827418082467	-2474.8770350073946	66.7591395977194	-701.9909689678058	-2455.656585717208	56.36021966733581	-674.949018864099	-2462.061959746097	111.25358774026178	-688.5061666015596	-2447.14470838329	144.9576415957151	-669.6563343070655	
